<svg width="22" height="18" viewBox="0 0 22 18" fill="none" xmlns="http://www.w3.org/2000/svg">
<path opacity="0.2" fill-rule="evenodd" clip-rule="evenodd" d="M10.1079 1.78376C10.1079 1.46838 10.2332 1.16591 10.4562 0.9429C10.6792 0.71989 10.9817 0.594604 11.297 0.594604C11.6124 0.594604 11.9149 0.71989 12.1379 0.9429C12.3609 1.16591 12.4862 1.46838 12.4862 1.78376V4.20012C13.1537 4.24452 13.8014 4.32379 14.4293 4.43795L14.8871 2.14526C14.9489 1.83587 15.1311 1.56371 15.3936 1.38864C15.6561 1.21358 15.9774 1.14996 16.2867 1.21178C16.5961 1.27359 16.8683 1.45578 17.0434 1.71826C17.2184 1.98074 17.282 2.30202 17.2202 2.61141L16.7339 5.03967C17.3475 5.2553 17.9183 5.50542 18.4462 5.79002L19.79 3.55084C19.9523 3.28024 20.2154 3.08519 20.5215 3.00858C20.8275 2.93198 21.1515 2.9801 21.4221 3.14237C21.6927 3.30463 21.8878 3.56775 21.9644 3.87383C22.041 4.17991 21.9928 4.50389 21.8306 4.77448L20.3822 7.18252C21.4061 8.18141 21.9994 9.3777 21.9994 10.7024C21.9994 14.4982 17.1203 17.2428 11.297 17.2428C5.47376 17.2428 0.594652 14.4982 0.594652 10.7024C0.594652 9.3777 1.18923 8.18141 2.21071 7.18371L0.764701 4.77329C0.678908 4.63935 0.62086 4.48956 0.593991 4.33278C0.567123 4.176 0.571982 4.01542 0.608279 3.86056C0.644577 3.70569 0.711575 3.55968 0.805309 3.43116C0.899043 3.30265 1.01761 3.19425 1.15398 3.11238C1.29036 3.0305 1.44177 2.97682 1.59926 2.95451C1.75676 2.9322 1.91712 2.94172 2.07087 2.98249C2.22462 3.02326 2.36863 3.09446 2.49437 3.19189C2.62011 3.28931 2.72503 3.41096 2.80291 3.54965L4.14666 5.79002C4.67623 5.50463 5.24702 5.2549 5.85904 5.04085L5.37505 2.61022C5.31324 2.30083 5.37686 1.97956 5.55192 1.71707C5.72699 1.45459 5.99915 1.2724 6.30854 1.21059C6.61793 1.14877 6.93921 1.21239 7.20169 1.38746C7.46417 1.56252 7.64636 1.83468 7.70818 2.14407L8.166 4.43558C8.8085 4.32163 9.45678 4.24303 10.1079 4.20012V1.78376ZM7.72958 6.96253C4.8875 7.67008 2.97296 9.16841 2.97296 10.7024C2.97296 12.8167 6.61178 14.8645 11.297 14.8645C15.9823 14.8645 19.6211 12.8167 19.6211 10.7024C19.6211 9.16841 17.7066 7.67008 14.8645 6.96253C15.4698 7.64914 15.8642 8.49581 16.0002 9.40096C16.1363 10.3061 16.0083 11.2313 15.6316 12.0655C15.255 12.8998 14.6456 13.6076 13.8766 14.1041C13.1077 14.6006 12.2124 14.8645 11.297 14.8645C10.3817 14.8645 9.48524 14.6006 8.71629 14.1041C7.94733 13.6076 7.33795 12.8998 6.96127 12.0655C6.5846 11.2313 6.45661 10.3061 6.59268 9.40096C6.72875 8.49581 7.12428 7.64914 7.72958 6.96253Z" fill="#FF8400"/>
<path fill-rule="evenodd" clip-rule="evenodd" d="M10.1079 15.4591C15.647 15.4591 20.2158 12.8893 20.2158 9.51328C20.2158 6.13727 15.647 3.5675 10.1079 3.5675C4.56886 3.5675 0.00012207 6.13727 0.00012207 9.51328C0.00012207 12.8893 4.56886 15.4591 10.1079 15.4591ZM10.1079 4.75666C15.0774 4.75666 19.0266 6.978 19.0266 9.51328C19.0266 12.0486 15.0774 14.2699 10.1079 14.2699C5.13846 14.2699 1.18928 12.0486 1.18928 9.51328C1.18928 6.978 5.13846 4.75666 10.1079 4.75666Z" fill="#FF8400"/>
<path d="M9.51335 0.594577C9.51335 0.436886 9.57599 0.285653 9.6875 0.174148C9.799 0.0626429 9.95023 0 10.1079 0C10.2656 0 10.4169 0.0626429 10.5284 0.174148C10.6399 0.285653 10.7025 0.436886 10.7025 0.594577V4.16204C10.7025 4.31973 10.6399 4.47097 10.5284 4.58247C10.4169 4.69398 10.2656 4.75662 10.1079 4.75662C9.95023 4.75662 9.799 4.69398 9.6875 4.58247C9.57599 4.47097 9.51335 4.31973 9.51335 4.16204V0.594577ZM14.2819 1.07262C14.3173 0.922592 14.4096 0.792184 14.5393 0.708897C14.669 0.62561 14.826 0.595954 14.9771 0.626185C15.1283 0.656417 15.2618 0.744171 15.3495 0.87094C15.4372 0.99771 15.4722 1.15359 15.4472 1.30569L14.8527 4.27858C14.8172 4.42861 14.7249 4.55901 14.5952 4.6423C14.4655 4.72559 14.3085 4.75524 14.1574 4.72501C14.0062 4.69478 13.8727 4.60703 13.785 4.48026C13.6973 4.35349 13.6623 4.19761 13.6873 4.04551L14.2819 1.07262ZM5.93399 1.07262C5.89858 0.922592 5.80628 0.792184 5.67657 0.708897C5.54686 0.62561 5.38987 0.595954 5.23871 0.626185C5.08756 0.656417 4.95405 0.744171 4.86635 0.87094C4.77865 0.99771 4.74361 1.15359 4.76862 1.30569L5.3632 4.27858C5.39861 4.42861 5.49091 4.55901 5.62062 4.6423C5.75033 4.72559 5.90732 4.75524 6.05848 4.72501C6.20963 4.69478 6.34314 4.60703 6.43084 4.48026C6.51854 4.35349 6.55358 4.19761 6.52857 4.04551L5.93399 1.07262ZM1.10483 2.66727C1.02378 2.53198 0.892299 2.43442 0.739314 2.39606C0.586329 2.3577 0.424373 2.38169 0.289073 2.46274C0.153774 2.54379 0.0562143 2.67527 0.0178566 2.82826C-0.020501 2.98124 0.0034852 3.1432 0.0845388 3.2785L1.86827 6.25139C1.94932 6.38669 2.08081 6.48425 2.23379 6.5226C2.38678 6.56096 2.54873 6.53698 2.68403 6.45592C2.81933 6.37487 2.91689 6.24339 2.95525 6.0904C2.99361 5.93742 2.96962 5.77546 2.88857 5.64016L1.10483 2.66727ZM19.111 2.66727C19.1512 2.60028 19.2041 2.54185 19.2668 2.49531C19.3295 2.44878 19.4008 2.41505 19.4765 2.39606C19.5523 2.37706 19.631 2.37318 19.7083 2.38462C19.7855 2.39606 19.8598 2.42261 19.9268 2.46274C19.9938 2.50287 20.0522 2.55581 20.0987 2.61853C20.1453 2.68124 20.179 2.75251 20.198 2.82826C20.217 2.90401 20.2209 2.98276 20.2094 3.06001C20.198 3.13726 20.1714 3.21151 20.1313 3.2785L18.3476 6.25139C18.3074 6.31838 18.2545 6.37681 18.1918 6.42335C18.1291 6.46988 18.0578 6.50361 17.9821 6.5226C17.9063 6.5416 17.8276 6.54548 17.7503 6.53404C17.6731 6.5226 17.5988 6.49606 17.5318 6.45592C17.4648 6.41579 17.4064 6.36285 17.3599 6.30014C17.3133 6.23742 17.2796 6.16615 17.2606 6.0904C17.2416 6.01465 17.2377 5.9359 17.2492 5.85865C17.2606 5.7814 17.2872 5.70716 17.3273 5.64016L19.111 2.66727ZM13.6754 8.91866C13.6754 9.86481 13.2995 10.7722 12.6305 11.4412C11.9615 12.1103 11.0541 12.4861 10.1079 12.4861C9.16178 12.4861 8.25438 12.1103 7.58535 11.4412C6.91632 10.7722 6.54046 9.86481 6.54046 8.91866C6.54046 7.97251 6.91632 7.06511 7.58535 6.39608C8.25438 5.72705 9.16178 5.3512 10.1079 5.3512C11.0541 5.3512 11.9615 5.72705 12.6305 6.39608C13.2995 7.06511 13.6754 7.97251 13.6754 8.91866Z" fill="#FF8400"/>
</svg>
