<svg width="20" height="13" viewBox="0 0 20 13" fill="none" xmlns="http://www.w3.org/2000/svg">
<path opacity="0.2" fill-rule="evenodd" clip-rule="evenodd" d="M1.52217 2.37748C1.40664 2.48458 1.30856 2.62008 1.23352 2.77626C1.15849 2.93243 1.10798 3.1062 1.08487 3.28765C1.06177 3.4691 1.06653 3.65465 1.09887 3.83372C1.13122 4.01278 1.19053 4.18184 1.2734 4.33124C1.48972 4.71751 1.74066 5.08372 2.02621 5.42988L0.811541 7.15971C0.61848 7.43439 0.517654 7.79705 0.531245 8.16791C0.544835 8.53877 0.671729 8.88746 0.88401 9.13727C1.09629 9.38707 1.37657 9.51753 1.66319 9.49995C1.94981 9.48236 2.21929 9.31817 2.41235 9.0435L3.82064 7.03795C4.31386 7.36731 4.8417 7.65282 5.40414 7.89447L4.88929 10.5606C4.82188 10.9196 4.86692 11.2985 5.01458 11.6148C5.16224 11.931 5.40053 12.1588 5.6775 12.2486C5.95447 12.3384 6.24764 12.2828 6.49307 12.094C6.73851 11.9052 6.91629 11.5985 6.98765 11.2408L7.50683 8.55366C8.0527 8.66655 8.61154 8.7412 9.18336 8.77758V11.6005C9.18336 11.9716 9.29732 12.3276 9.50016 12.5901C9.70301 12.8526 9.97813 13 10.265 13C10.5519 13 10.827 12.8526 11.0298 12.5901C11.2327 12.3276 11.3466 11.9716 11.3466 11.6005V8.7202C11.9005 8.65544 12.4511 8.55125 12.9961 8.4081L13.0015 8.44169L13.5423 11.2408C13.576 11.4202 13.6368 11.5892 13.7212 11.7381C13.8056 11.887 13.9119 12.0128 14.034 12.1083C14.1562 12.2037 14.2917 12.267 14.4328 12.2944C14.5739 12.3218 14.7178 12.3128 14.8562 12.268C14.9946 12.2231 15.1248 12.1432 15.2393 12.033C15.3537 11.9227 15.4502 11.7843 15.5231 11.6256C15.596 11.4669 15.644 11.2911 15.6642 11.1083C15.6843 10.9255 15.6764 10.7394 15.6407 10.5606L15.0999 7.76152C15.091 7.71417 15.0801 7.66745 15.0674 7.62156C15.5369 7.38457 15.9782 7.11446 16.3913 6.81123L18.1533 9.09248C18.3563 9.35491 18.6315 9.50226 18.9184 9.50213C19.2053 9.502 19.4805 9.35439 19.6833 9.09178C19.8861 8.82917 20 8.47307 19.9999 8.10181C19.9998 7.73055 19.8857 7.37455 19.6827 7.11213L18.1252 5.09679C18.3055 4.85047 18.4692 4.59528 18.6163 4.33124C18.6991 4.18191 18.7585 4.01292 18.7909 3.83392C18.8233 3.65491 18.8281 3.4694 18.8051 3.28798C18.7821 3.10656 18.7317 2.93277 18.6568 2.77655C18.5819 2.62032 18.484 2.48472 18.3686 2.37748C18.2532 2.27024 18.1226 2.19346 17.9842 2.15152C17.8459 2.10959 17.7025 2.10333 17.5623 2.13309C17.4221 2.16285 17.2878 2.22805 17.167 2.32498C17.0463 2.4219 16.9415 2.54864 16.8586 2.69797C16.5309 3.28998 16.0236 3.85539 15.366 4.34523C13.9674 5.38929 12.0302 6.00229 9.94483 6.00229C7.85945 6.00229 5.92225 5.39069 4.5237 4.34523C3.86715 3.85539 3.35986 3.28998 3.03105 2.69797C2.86373 2.39669 2.61082 2.19369 2.32788 2.1336C2.04494 2.0735 1.75514 2.16122 1.52217 2.37748Z" fill="#FF8400"/>
<path d="M0.632137 1.12348C0.588371 1.04905 0.55658 0.964018 0.538644 0.873417C0.520707 0.782816 0.516989 0.688481 0.527709 0.595989C0.538429 0.503497 0.56337 0.414724 0.601057 0.334916C0.638744 0.255109 0.688412 0.185886 0.747128 0.131339C0.805843 0.076792 0.872413 0.0380283 0.942903 0.0173382C1.01339 -0.00335199 1.08637 -0.00554878 1.15753 0.0108782C1.22869 0.0273051 1.29658 0.0620225 1.35719 0.112978C1.4178 0.163933 1.46991 0.230093 1.51042 0.307548C1.88683 0.984926 2.45144 1.61472 3.17181 2.15214C4.65688 3.26058 6.68711 3.90297 8.86335 3.90297C11.0396 3.90297 13.0709 3.26058 14.556 2.15214C15.2753 1.61472 15.8399 0.984926 16.2163 0.307548C16.2999 0.156662 16.4264 0.0549386 16.568 0.0247551C16.7096 -0.00542834 16.8546 0.0384005 16.9712 0.1466C17.0879 0.254799 17.1665 0.418507 17.1898 0.601707C17.2131 0.784908 17.1793 0.972595 17.0956 1.12348C16.623 1.9744 15.9415 2.73295 15.0968 3.36415C13.4386 4.60134 11.2213 5.30251 8.86335 5.30251C6.50539 5.30251 4.28805 4.60274 2.63099 3.36415C1.78516 2.73295 1.10373 1.9744 0.632137 1.12488" fill="#FF8400"/>
<path d="M9.72429 5.3025C9.72429 5.11691 9.66731 4.93892 9.56589 4.80769C9.46447 4.67646 9.32691 4.60273 9.18347 4.60273C9.04004 4.60273 8.90248 4.67646 8.80106 4.80769C8.69964 4.93892 8.64266 5.11691 8.64266 5.3025V8.80136C8.64266 8.98695 8.69964 9.16494 8.80106 9.29617C8.90248 9.4274 9.04004 9.50113 9.18347 9.50113C9.32691 9.50113 9.46447 9.4274 9.56589 9.29617C9.66731 9.16494 9.72429 8.98695 9.72429 8.80136V5.3025ZM4.86777 4.46558C4.87955 4.3729 4.90562 4.28424 4.94444 4.20488C4.98326 4.12552 5.03403 4.05708 5.09373 4.00364C5.15342 3.95021 5.22082 3.91287 5.2919 3.89385C5.36299 3.87483 5.4363 3.87452 5.50748 3.89294C5.57866 3.91136 5.64624 3.94813 5.7062 4.00106C5.76617 4.05399 5.81728 4.122 5.8565 4.20103C5.89572 4.28007 5.92224 4.36851 5.93448 4.46108C5.94673 4.55366 5.94444 4.64848 5.92777 4.73989L5.38695 8.23874C5.35474 8.41531 5.27079 8.56879 5.1528 8.66681C5.03482 8.76484 4.89203 8.79974 4.75454 8.76416C4.61705 8.72858 4.49562 8.6253 4.41585 8.4761C4.33607 8.3269 4.3042 8.14345 4.32695 7.96443L4.86777 4.46558ZM13.4992 4.46558C13.467 4.28901 13.383 4.13553 13.265 4.0375C13.147 3.93948 13.0043 3.90458 12.8668 3.94016C12.7293 3.97574 12.6078 4.07902 12.5281 4.22822C12.4483 4.37742 12.4164 4.56087 12.4392 4.73989L12.98 8.23874C13.0122 8.41531 13.0962 8.56879 13.2141 8.66681C13.3321 8.76484 13.4749 8.79974 13.6124 8.76416C13.7499 8.72858 13.8713 8.6253 13.9511 8.4761C14.0309 8.3269 14.0627 8.14345 14.04 7.96443L13.4992 4.46558ZM16.0562 2.00798C15.9546 1.87658 15.8169 1.80276 15.6733 1.80276C15.5296 1.80276 15.3919 1.87658 15.2904 2.00798C15.1888 2.13938 15.1318 2.31759 15.1318 2.50342C15.1318 2.68924 15.1888 2.86746 15.2904 2.99886L17.4536 5.79794C17.5552 5.92934 17.6929 6.00316 17.8365 6.00316C17.9801 6.00316 18.1179 5.92934 18.2194 5.79794C18.321 5.66654 18.378 5.48833 18.378 5.3025C18.378 5.11668 18.321 4.93846 18.2194 4.80706L16.0562 2.00798ZM2.09663 2.03317C2.1437 1.96213 2.20131 1.90402 2.26604 1.86229C2.33077 1.82056 2.40131 1.79605 2.47349 1.79021C2.54567 1.78438 2.61802 1.79733 2.68627 1.82831C2.75451 1.85929 2.81726 1.90767 2.8708 1.97058C2.92434 2.03349 2.96758 2.10965 2.99797 2.19457C3.02836 2.27948 3.04528 2.37142 3.04773 2.46495C3.05017 2.55847 3.0381 2.65168 3.01221 2.73906C2.98633 2.82644 2.94717 2.90621 2.89704 2.97367L0.930634 5.77275C0.833068 5.90403 0.69979 5.98091 0.559112 5.98708C0.418435 5.99324 0.281443 5.92819 0.17724 5.80575C0.0730364 5.68331 0.0098321 5.51312 0.00105362 5.33135C-0.00772486 5.14957 0.0386143 4.97053 0.130227 4.83226L2.09663 2.03317Z" fill="#FF8400"/>
</svg>
